<svg version="1.1" id="Layer_1" xmlns="http://www.w3.org/2000/svg" xmlns:xlink="http://www.w3.org/1999/xlink" x="0px" y="0px"
	  viewBox="0 0 250 250" style="enable-background:new 0 0 400 400;" xml:space="preserve">
   <g class="centro" fill="#47113a">
   	<path d="M150.9,112.6c0,0,1.3-4.3-6.4-4.4c0,0-30.7,0.3-31.9-33.8c-0.1-2.3,1.2-7.7-5-7.9c-6.2,0.2-5,5.5-5,7.9
   		c-1.1,34-31.9,33.8-31.9,33.8c-7.6,0.1-6.4,4.4-6.4,4.4v0c0,0-1.3,4.3,6.4,4.4c0,0,30.8-0.3,31.9,33.7c0.1,2.3-1.2,7.7,5,7.9
   		c6.2-0.2,5-5.5,5-7.9c1.1-34,31.9-33.7,31.9-33.7C152.2,116.9,150.9,112.6,150.9,112.6L150.9,112.6z"/>
   </g>
</svg>
