<svg version="1.1" id="Layer_1" xmlns="http://www.w3.org/2000/svg" xmlns:xlink="http://www.w3.org/1999/xlink" x="0px" y="0px"
	 viewBox="0 0 250 250" style="enable-background:new 0 0 500 500;" xml:space="preserve">
  <g class="croasanes" fill="#f44e22">
  	<path d="M23.4,108.9c0,16.8,17.5,21.8,15.1,27.1c-0.4,1-2.9,4.3-5.8,3.9c-15.2-2.6-24.4-12-24.4-29.3c0-18.3,5.1-28.6,21.3-32.6
  		c0.9-0.2,4,0.6,5.7,2.1c2,1.8,1.3,5,0.5,6.8C34.3,90.4,23.4,93.4,23.4,108.9z"/>
  	<path d="M191.3,108.9c0,16.8-17.5,21.8-15.1,27.1c0.4,1,2.9,4.3,5.8,3.9c15.2-2.6,24.4-12,24.4-29.3c0-18.3-5.1-28.6-21.3-32.6
  		c-0.9-0.2-4,0.6-5.7,2.1c-2,1.8-1.3,5-0.5,6.8C180.4,90.4,191.3,93.4,191.3,108.9z"/>
  	<path d="M108.1,194.3c16.8,0,21.8-17.5,27.1-15.1c1,0.4,4.3,2.9,3.9,5.8c-2.6,15.2-12,24.4-29.3,24.4c-18.3,0-28.6-5.1-32.6-21.3
  		c-0.2-0.9,0.6-4,2.1-5.7c1.8-2,5-1.3,6.8-0.5C89.6,183.4,92.6,194.3,108.1,194.3z"/>
  	<path d="M108.1,24.9c16.8,0,21.8,17.5,27.1,15.1c1-0.4,4.3-2.9,3.9-5.8c-2.6-15.2-12-24.4-29.3-24.4c-18.3,0-28.6,5.1-32.6,21.3
  		c-0.2,0.9,0.6,4,2.1,5.7c1.8,2,5,1.3,6.8,0.5C89.6,35.8,92.6,24.9,108.1,24.9z"/>
  </g>
</svg>
