<svg version="1.1" id="Layer_1" xmlns="http://www.w3.org/2000/svg" xmlns:xlink="http://www.w3.org/1999/xlink" x="0px" y="0px"
	 viewBox="0 0 250 250" style="enable-background:new 0 0 400 400;" xml:space="preserve">
	 <g class="medias_lunas" fill="#e5802e">
	 	<path d="M53.3,89.8c-0.2-1.8-4-18.5,2.6-26.6c5.8-7.2,21.7-6,25.9-4.4c0,0,3,1.4,4.3,0.7c1.3-0.7,0.9-3.6,0-4.8
	 		c-3.7-4.4-17.8-10.5-25.3-7.9c0,0-22.4,7.2-19.6,26.1c0,0,1.8,9.2,4.4,13.7C49,92.2,53.8,93.2,53.3,89.8z"/>
	 	<path d="M160.7,90.8c0.2-1.8,4-18.5-2.6-26.6c-5.8-7.2-21.7-6-25.9-4.4c0,0-3,1.4-4.3,0.7c-1.3-0.7-0.9-3.6,0-4.8
	 		c3.7-4.4,17.8-10.5,25.3-7.9c0,0,22.4,7.2,19.6,26.1c0,0-1.8,9.2-4.4,13.7C165,93.2,160.3,94.2,160.7,90.8z"/>
	 	<path d="M159.7,134.2c0.2,1.8,4,18.5-2.6,26.6c-5.8,7.2-21.7,6-25.9,4.4c0,0-3-1.4-4.3-0.7c-1.3,0.7-0.9,3.6,0,4.8
	 		c3.7,4.4,17.7,10.5,25.3,7.9c0,0,22.4-7.2,19.6-26.1c0,0-1.8-9.2-4.4-13.7C164,131.8,159.3,130.8,159.7,134.2z"/>
	 	<path d="M53.3,134.2c-0.2,1.8-4,18.5,2.6,26.6c5.8,7.2,21.7,6,25.9,4.4c0,0,3-1.4,4.3-0.7c1.3,0.7,0.9,3.6,0,4.8
	 		c-3.7,4.4-17.8,10.5-25.3,7.9c0,0-22.4-7.2-19.6-26.1c0,0,1.8-9.2,4.4-13.7C49,131.8,53.8,130.8,53.3,134.2z"/>
	 </g>
</svg>
