<?xml version="1.0" standalone="no"?>
 <svg version="1.1" id="Layer_1" xmlns="http://www.w3.org/2000/svg" xmlns:xlink="http://www.w3.org/1999/xlink" x="0px" y="0px"
 	 viewBox="0 0 1250 1250" style="enable-background:new 0 0 400 400;" xml:space="preserve">


<g transform="translate(0.000000,1280.000000) scale(0.100000,-0.100000)"
fill="#03a9f4" stroke="none">
<path d="M6241 12549 c-77 -118 -534 -817 -1014 -1554 l-874 -1340 -2036 -3
c-1121 -1 -2037 -4 -2037 -6 0 -19 2025 -3116 2035 -3112 5 1 104 147 220 325
115 177 213 322 218 324 11 3 478 -656 473 -669 -8 -20 -461 -650 -470 -653
-5 -2 -105 144 -222 323 -117 180 -215 328 -219 329 -3 1 -45 -59 -94 -133
-1130 -1732 -1935 -2968 -1938 -2978 -4 -10 402 -12 2035 -10 l2039 3 1003
-1538 c552 -847 1011 -1548 1020 -1559 16 -20 52 35 1031 1535 l1014 1557
2036 2 2037 3 -1014 1555 c-558 855 -1018 1556 -1023 1558 -5 2 -103 -141
-217 -317 -160 -245 -212 -317 -221 -308 -33 34 -454 631 -451 641 4 14 387
549 424 591 l26 30 -23 -33 -22 -34 27 -26 26 -27 26 27 27 26 -24 34 c-13 18
-28 36 -34 40 -7 5 -6 8 1 8 7 0 105 -142 220 -315 114 -174 211 -314 215
-313 5 2 445 674 979 1493 534 820 991 1520 1016 1558 l44 67 -2042 0 -2043 1
-122 187 c-514 791 -1896 2909 -1903 2916 -5 5 -67 -79 -149 -205z m2266
-3034 c38 -60 163 -253 277 -427 113 -175 209 -324 212 -333 5 -13 -51 -15
-504 -15 l-509 0 -36 51 c-32 45 -35 55 -24 74 39 73 503 772 508 767 4 -4 38
-56 76 -117z m-3912 -265 c131 -201 247 -380 258 -398 l19 -33 -26 -39 -26
-40 -525 0 c-289 0 -525 3 -525 6 0 17 574 884 580 877 4 -4 114 -172 245
-373z m505 -918 c150 -211 270 -385 268 -388 -3 -2 -255 -3 -560 -2 l-555 3
280 393 c154 216 283 389 287 385 4 -4 130 -180 280 -391z m3178 -12 l268
-375 -555 -3 c-305 -1 -556 0 -558 2 -3 2 121 180 274 395 243 342 280 389
290 373 7 -9 133 -186 281 -392z m-2778 -573 c120 -165 122 -168 106 -192
l-16 -25 -250 0 c-138 0 -250 3 -250 7 0 6 106 156 223 316 27 37 53 67 57 65
5 -2 63 -79 130 -171z m2022 11 c129 -173 158 -214 158 -222 0 -9 -376 -6
-435 4 -27 4 -38 8 -24 9 19 1 34 13 54 44 16 23 51 71 78 107 66 85 77 113
64 156 -6 18 -14 31 -18 28 -5 -3 -6 2 -3 10 3 9 8 16 9 16 2 0 55 -69 117
-152z m-132 108 c0 -2 -8 -10 -17 -17 -16 -13 -17 -12 -4 4 13 16 21 21 21 13z
m-30 -40 c0 -2 -8 -10 -17 -17 -16 -13 -17 -12 -4 4 13 16 21 21 21 13z m-50
-70 c0 -2 -8 -10 -17 -17 -16 -13 -17 -12 -4 4 13 16 21 21 21 13z m-30 -40
c0 -2 -8 -10 -17 -17 -16 -13 -17 -12 -4 4 13 16 21 21 21 13z m-50 -70 c0 -2
-8 -10 -17 -17 -16 -13 -17 -12 -4 4 13 16 21 21 21 13z m-49 -65 c-11 -15
-17 -32 -13 -36 4 -5 1 -5 -6 -1 -9 6 -7 14 8 37 12 16 24 29 26 29 3 0 -4
-13 -15 -29z m-1537 -135 c25 -32 43 -62 41 -66 -3 -4 3 -14 13 -21 15 -13 16
-12 3 4 -7 9 -11 17 -8 17 2 0 17 -17 33 -37 25 -34 25 -36 4 -18 -21 18 -21
16 4 -17 16 -21 31 -38 33 -38 3 0 0 7 -7 15 -20 24 -5 18 16 -7 10 -12 13
-18 7 -14 -22 13 -14 -10 20 -55 42 -57 117 -182 117 -196 0 -6 6 -14 13 -16
6 -3 -140 -6 -325 -6 -186 -1 -338 -4 -338 -7 0 -7 125 -160 273 -336 l98
-117 -185 -222 c-102 -123 -186 -227 -186 -231 0 -4 164 -8 365 -8 345 0 365
-1 356 -17 -18 -34 -387 -497 -398 -500 -6 -2 -69 69 -140 158 -70 89 -234
296 -363 459 -129 163 -247 312 -261 330 l-25 34 -113 -142 c-62 -78 -116
-142 -121 -142 -4 0 -54 63 -110 141 -57 77 -106 137 -110 132 -4 -4 -125
-172 -270 -373 -144 -201 -270 -373 -279 -382 -15 -16 -35 9 -281 354 -146
203 -269 378 -274 388 -6 14 2 32 36 77 24 32 150 206 278 387 l234 329 26
-33 c14 -18 138 -188 276 -378 137 -190 254 -347 260 -349 5 -1 47 50 94 113
47 64 89 118 94 122 6 3 0 -8 -11 -24 l-21 -30 29 -16 c33 -20 49 -16 67 13
10 16 10 24 1 35 -6 8 -9 14 -6 14 2 0 46 -51 97 -112 51 -62 98 -113 103
-113 6 0 106 122 224 270 492 622 558 703 565 697 3 -4 27 -34 52 -66z m1945
-455 c185 -234 342 -433 349 -443 12 -16 -28 -70 -373 -505 -212 -269 -390
-489 -394 -491 -11 -4 -401 492 -401 511 0 4 110 7 243 7 134 0 305 3 379 6
l136 7 -184 220 c-101 122 -184 224 -184 227 0 3 26 37 58 76 246 294 312 374
312 379 0 3 -163 6 -362 6 -200 1 -352 4 -338 6 18 3 39 25 75 76 106 155 141
192 209 225 36 17 69 39 74 49 16 29 17 109 3 130 -60 84 118 -134 398 -486z
m1688 -71 c136 -190 256 -357 266 -372 l20 -27 -283 -396 c-227 -318 -285
-394 -295 -383 -7 7 -130 177 -275 378 -145 201 -271 375 -281 388 l-18 23
-60 -83 c-34 -46 -83 -113 -109 -150 l-49 -68 -105 133 c-58 72 -111 141 -118
153 -12 19 -3 33 104 167 64 81 117 147 119 147 2 0 50 -65 107 -145 58 -80
108 -145 111 -145 4 0 135 176 291 391 l283 391 22 -29 c13 -15 134 -183 270
-373z m-3462 310 c10 -11 16 -20 13 -20 -3 0 -13 9 -23 20 -10 11 -16 20 -13
20 3 0 13 -9 23 -20z m36 -47 c13 -16 12 -17 -3 -4 -10 7 -18 15 -18 17 0 8 8
3 21 -13z m40 -50 c13 -16 12 -17 -3 -4 -10 7 -18 15 -18 17 0 8 8 3 21 -13z
m961 -245 l19 -28 -34 0 c-32 0 -33 2 -29 30 2 17 -2 38 -9 48 -10 12 -7 12
10 -3 13 -11 32 -32 43 -47z m-898 -13 c4 -10 -1 -15 -16 -15 -17 0 -18 2 -8
15 7 8 14 15 15 15 2 0 5 -7 9 -15z m-1363 -82 c13 -16 12 -17 -3 -5 -9 8 -23
10 -29 6 -8 -4 -9 -3 -5 4 10 17 21 15 37 -5z m1179 -218 l44 -45 -46 -46 -46
-47 -31 34 c-46 51 -47 64 -9 109 18 21 35 39 38 39 3 1 26 -19 50 -44z m1293
23 c-37 -41 -38 -52 -5 -33 17 10 28 23 25 29 -3 6 11 -5 32 -26 l38 -36 -39
-47 -39 -46 -37 42 c-21 23 -38 45 -38 50 0 10 69 89 78 89 3 0 -4 -10 -15
-22z m-1035 -394 l60 -7 -24 -26 c-13 -14 -24 -33 -24 -42 0 -9 -6 -22 -14
-28 -11 -9 -23 0 -60 43 -25 30 -46 57 -46 60 0 8 32 8 108 0z m795 0 c52 -7
53 -1 -17 -84 l-28 -34 -44 50 c-24 27 -43 52 -44 56 0 14 69 21 133 12z
m-1210 -694 c7 -12 -16 -51 -101 -170 -60 -85 -118 -165 -128 -178 l-19 -23
-85 118 c-82 113 -171 240 -185 263 -4 7 70 10 251 8 219 -3 258 -5 267 -18z
m2061 8 c-8 -14 -235 -330 -259 -362 -9 -12 -19 -16 -24 -10 -5 5 -63 85 -129
178 -103 145 -118 172 -109 188 11 17 31 18 270 18 204 0 257 -3 251 -12z
m474 -398 l412 0 -58 -84 c-179 -259 -517 -724 -523 -720 -11 6 -569 790 -569
799 0 10 57 13 185 9 77 -2 326 -4 553 -4z m-2778 -10 c0 -11 -80 -125 -369
-530 -100 -140 -185 -256 -189 -257 -6 -2 -325 440 -505 699 l-68 98 566 0
c367 0 565 -3 565 -10z m-530 -852 c16 -22 30 -45 30 -50 0 -13 -512 -798
-521 -798 -4 0 -43 55 -87 123 -43 67 -172 265 -286 439 -113 175 -206 320
-206 323 0 3 234 5 520 5 l520 0 30 -42z m4160 37 c0 -13 -561 -875 -569 -875
-6 0 -120 171 -370 558 l-151 232 32 45 32 45 513 0 c282 0 513 -2 513 -5z"/>
</g>
</svg>
