<?xml version="1.0" encoding="utf-8"?>
<!-- Generator: Adobe Illustrator 20.1.0, SVG Export Plug-In . SVG Version: 6.00 Build 0)  -->
<svg version="1.1" id="Layer_1" xmlns="http://www.w3.org/2000/svg" xmlns:xlink="http://www.w3.org/1999/xlink" x="0px" y="0px"
	 viewBox="0 0 500 500" style="enable-background:new 0 0 500 500;" xml:space="preserve">
<style type="text/css">
	.st0{fill:none;}
	.st1{fill:#5ACAEF;stroke:#000000;stroke-width:5;stroke-miterlimit:10;}
	.st2{fill:#71BF44;stroke:#000000;stroke-width:5;stroke-miterlimit:10;}
	.st3{fill:#F7EC33;stroke:#000000;stroke-width:5;stroke-miterlimit:10;}
	.st4{fill:url(#);}
	.st5{fill:#F5A21D;}
	.st6{fill:#FBF4A4;}
	.st7{fill:#C0E4D9;}
	.st8{fill:#69CEF6;}
	.st9{fill:#FFDC70;}
	.st10{fill:#72C594;}
	.st11{fill:#020202;}
	.st12{fill:#744D9F;}
	.st13{fill:#ECA521;}
	.st14{fill:#ED2273;}
	.st15{fill:url(#);stroke:#FFFBD9;stroke-width:2;stroke-miterlimit:10;}
	.st16{fill:url(#New_Pattern_Swatch_12);stroke:url(#New_Pattern_Swatch_12);stroke-miterlimit:10;}
	.st17{fill:url(#);stroke:url(#);stroke-miterlimit:10;}
</style>
<pattern  x="-2983" y="-1208.1" width="192.2" height="144.7" patternUnits="userSpaceOnUse" id="New_Pattern_Swatch_12" viewBox="96.1 -193 192.2 144.7" style="overflow:visible;">
	<g>
		<rect x="96.1" y="-193" class="st0" width="192.2" height="144.7"/>
		<g>

				<rect x="208.8" y="-79.9" transform="matrix(0.7071 -0.7071 0.7071 0.7071 104.5259 155.8635)" class="st1" width="63.2" height="63.2"/>

				<rect x="253.5" y="-79.9" transform="matrix(0.7071 -0.7071 0.7071 0.7071 117.6125 187.4572)" class="st2" width="63.2" height="63.2"/>

				<rect x="304.5" y="-79.9" transform="matrix(0.7071 -0.7071 0.7071 0.7071 132.55 223.5197)" class="st3" width="63.2" height="63.2"/>
		</g>
		<g>

				<rect x="16.6" y="-79.9" transform="matrix(0.7071 -0.7071 0.7071 0.7071 48.2422 19.9826)" class="st1" width="63.2" height="63.2"/>

				<rect x="61.3" y="-79.9" transform="matrix(0.7071 -0.7071 0.7071 0.7071 61.3288 51.5763)" class="st2" width="63.2" height="63.2"/>

				<rect x="112.3" y="-79.9" transform="matrix(0.7071 -0.7071 0.7071 0.7071 76.2663 87.6387)" class="st3" width="63.2" height="63.2"/>
		</g>
		<g>

				<rect x="112.7" y="-152.2" transform="matrix(0.7071 -0.7071 0.7071 0.7071 127.5527 66.7283)" class="st1" width="63.2" height="63.2"/>

				<rect x="157.4" y="-152.2" transform="matrix(0.7071 -0.7071 0.7071 0.7071 140.6392 98.322)" class="st2" width="63.2" height="63.2"/>

				<rect x="208.4" y="-152.2" transform="matrix(0.7071 -0.7071 0.7071 0.7071 155.5768 134.3845)" class="st3" width="63.2" height="63.2"/>
		</g>
		<g>

				<rect x="208.8" y="-224.6" transform="matrix(0.7071 -0.7071 0.7071 0.7071 206.8632 113.4741)" class="st1" width="63.2" height="63.2"/>

				<rect x="253.5" y="-224.6" transform="matrix(0.7071 -0.7071 0.7071 0.7071 219.9497 145.0677)" class="st2" width="63.2" height="63.2"/>

				<rect x="304.5" y="-224.6" transform="matrix(0.7071 -0.7071 0.7071 0.7071 234.8873 181.1302)" class="st3" width="63.2" height="63.2"/>
		</g>
		<g>

				<rect x="16.6" y="-224.6" transform="matrix(0.7071 -0.7071 0.7071 0.7071 150.5794 -22.4069)" class="st1" width="63.2" height="63.2"/>

				<rect x="61.3" y="-224.6" transform="matrix(0.7071 -0.7071 0.7071 0.7071 163.666 9.1868)" class="st2" width="63.2" height="63.2"/>

				<rect x="112.3" y="-224.6" transform="matrix(0.7071 -0.7071 0.7071 0.7071 178.6035 45.2493)" class="st3" width="63.2" height="63.2"/>
		</g>
	</g>
</pattern>
<rect x="-2" y="-4.1" class="st16" width="508" height="508"/>
</svg>
