<?xml version="1.0" standalone="no"?>
<!DOCTYPE svg PUBLIC "-//W3C//DTD SVG 20010904//EN"
 "http://www.w3.org/TR/2001/REC-SVG-20010904/DTD/svg10.dtd">
 <svg version="1.1" id="Layer_1" xmlns="http://www.w3.org/2000/svg" xmlns:xlink="http://www.w3.org/1999/xlink" x="0px" y="0px"
 	 viewBox="0 0 1300 1300" style="enable-background:new 0 0 400 400;" xml:space="preserve">

<metadata>
Created by potrace 1.15, written by Peter Selinger 2001-2017
</metadata>
<g transform="translate(0.000000,1280.000000) scale(0.100000,-0.100000)"
fill="#f44336" stroke="none">
<path d="M4765 12386 c-42 -15 -63 -29 -72 -46 -22 -46 -33 -154 -30 -292 1
-75 -1 -139 -5 -143 -15 -15 -63 34 -124 129 -109 167 -160 207 -234 186 -19
-6 -47 -10 -62 -10 -15 0 -39 -10 -53 -22 -41 -37 -55 -109 -55 -300 0 -184
-2 -191 -62 -202 -18 -3 -94 -12 -168 -21 -146 -17 -231 -39 -257 -67 -15 -16
-22 -58 -24 -134 -2 -76 58 -135 219 -214 67 -33 131 -69 142 -80 32 -32 24
-71 -42 -197 -55 -105 -62 -126 -66 -189 -4 -62 -1 -80 21 -127 25 -56 63 -87
105 -87 45 0 156 44 218 85 37 25 68 45 70 45 9 0 3 -203 -7 -249 -12 -57 -19
-61 -129 -61 -118 0 -238 -17 -287 -41 -77 -37 -116 -124 -93 -208 17 -64 72
-111 211 -180 139 -70 169 -93 169 -130 0 -14 -17 -60 -38 -101 -35 -71 -39
-75 -77 -82 -22 -4 -70 -5 -107 -1 -66 5 -67 6 -82 44 -9 21 -25 89 -36 151
-26 149 -47 213 -81 249 -24 26 -34 29 -86 29 -131 -1 -188 -57 -263 -265 -18
-49 -42 -103 -53 -119 -19 -26 -23 -28 -71 -22 -28 4 -90 20 -138 37 l-87 31
89 87 c91 88 126 145 115 184 -15 50 -48 114 -65 125 -10 6 -45 16 -79 23 -52
11 -82 10 -205 -5 -79 -10 -157 -15 -174 -12 -37 9 -45 26 -77 178 -32 154
-43 195 -61 234 -16 33 -50 54 -89 54 -13 0 -27 5 -30 10 -3 6 -24 10 -45 10
-73 0 -137 -78 -206 -252 -24 -61 -53 -123 -64 -138 -18 -25 -25 -28 -63 -23
-23 2 -88 20 -143 39 -183 61 -300 63 -319 5 -3 -11 -15 -23 -26 -26 -10 -4
-26 -20 -35 -36 -28 -55 1 -126 106 -261 97 -122 123 -178 83 -178 -10 0 -78
21 -151 46 -156 53 -224 64 -269 40 -18 -9 -34 -25 -38 -36 -3 -11 -12 -20
-19 -20 -26 0 -49 -40 -49 -85 0 -65 49 -156 136 -250 41 -44 79 -90 85 -102
31 -58 4 -104 -109 -189 -88 -65 -157 -132 -179 -174 -16 -31 -15 -86 3 -113
8 -12 18 -37 22 -55 14 -67 86 -82 272 -58 129 17 184 19 220 10 27 -7 43 -52
79 -224 27 -133 54 -208 84 -235 13 -12 36 -17 81 -16 117 0 192 65 239 205
l21 65 47 -52 c144 -159 145 -199 10 -298 -193 -140 -239 -218 -188 -318 48
-95 130 -122 289 -97 56 9 130 16 165 16 l64 0 21 -53 c12 -29 28 -77 36 -106
l13 -52 -54 -43 c-31 -24 -72 -53 -93 -64 l-38 -21 -39 29 c-22 16 -64 56 -93
90 -30 34 -79 78 -109 98 -51 34 -61 37 -126 37 -75 -1 -118 -16 -156 -57 -28
-30 -26 -98 6 -228 14 -58 28 -135 31 -172 7 -78 0 -92 -63 -118 -48 -21 -186
-61 -191 -56 -2 2 6 51 18 108 15 73 20 119 15 151 -7 47 -7 47 -96 116 -63
48 -176 12 -245 -78 -40 -51 -130 -130 -181 -157 -33 -18 -35 -18 -69 1 -20
10 -67 55 -104 99 -37 45 -87 94 -110 110 -53 37 -132 46 -179 22 -18 -9 -32
-14 -32 -12 0 3 -14 0 -31 -6 -64 -22 -76 -132 -35 -303 41 -171 42 -190 12
-219 -17 -15 -72 -38 -144 -61 -171 -53 -220 -74 -258 -110 -24 -23 -34 -41
-34 -63 0 -57 22 -133 43 -153 36 -34 125 -74 264 -118 73 -24 133 -47 133
-52 0 -14 -91 -52 -199 -83 -119 -34 -209 -79 -221 -110 -5 -13 -12 -54 -15
-92 -11 -112 13 -131 256 -208 97 -31 155 -55 174 -72 32 -29 31 -46 -12 -224
-30 -124 -29 -225 1 -259 28 -31 120 -71 162 -71 64 0 118 35 215 140 105 114
136 132 183 106 70 -37 170 -121 197 -166 53 -86 156 -118 222 -68 17 14 43
28 55 33 27 8 52 59 52 106 0 17 -9 76 -20 131 -12 55 -19 103 -16 106 8 8
167 -45 211 -71 l40 -23 -2 -75 c0 -40 -13 -122 -27 -181 -14 -59 -26 -128
-26 -152 0 -40 4 -48 42 -80 76 -66 172 -72 257 -16 25 16 85 70 134 120 59
61 95 90 110 90 24 0 42 -10 126 -74 52 -39 53 -41 47 -82 -3 -23 -17 -72 -32
-108 l-26 -66 -64 0 c-35 0 -108 7 -162 16 -105 17 -185 13 -237 -12 -26 -12
-37 -28 -54 -73 -11 -32 -21 -71 -21 -88 0 -42 65 -128 148 -196 38 -32 90
-79 115 -106 44 -47 45 -50 35 -84 -6 -20 -40 -75 -76 -123 -56 -74 -67 -84
-74 -68 -4 10 -17 44 -28 74 -28 79 -72 135 -127 161 -57 27 -130 30 -166 6
-42 -27 -83 -129 -112 -274 -14 -73 -30 -144 -36 -157 -19 -41 -73 -45 -259
-20 -146 19 -201 13 -235 -28 -14 -16 -25 -35 -25 -41 0 -7 -9 -23 -20 -37
-58 -74 8 -182 192 -312 116 -82 124 -135 35 -235 -93 -105 -126 -149 -148
-198 -30 -68 -29 -119 5 -154 14 -15 26 -32 26 -38 0 -6 12 -21 28 -33 41 -34
126 -24 292 33 74 26 143 47 153 47 40 0 11 -62 -81 -175 -62 -77 -122 -182
-122 -216 0 -9 11 -31 25 -50 13 -19 29 -44 35 -57 31 -71 179 -67 347 9 95
43 118 49 157 38 44 -12 57 -34 105 -172 44 -127 73 -180 122 -221 34 -29 31
-29 144 -10 96 16 127 67 135 220 6 107 8 114 46 177 29 49 46 68 66 72 16 4
88 -1 160 -10 145 -19 256 -15 293 9 13 9 26 30 30 48 4 18 11 38 15 43 16 21
19 61 8 98 -16 52 -70 109 -147 155 -36 21 -66 43 -68 49 -4 11 180 69 249 78
46 6 48 5 68 -27 11 -18 34 -69 50 -113 63 -166 96 -221 153 -255 72 -44 191
-11 234 66 22 39 35 101 51 250 5 45 16 94 23 110 13 26 20 30 74 35 33 3 85
3 115 0 l55 -6 22 -55 c13 -32 23 -77 23 -107 0 -78 -41 -120 -164 -168 -163
-62 -214 -118 -203 -217 16 -132 90 -169 364 -183 62 -3 119 -8 127 -11 22 -9
36 -84 36 -198 0 -58 -2 -106 -5 -106 -3 0 -26 15 -52 34 -94 66 -202 104
-261 91 -16 -3 -48 -26 -71 -51 -37 -41 -41 -49 -41 -97 0 -71 22 -142 80
-257 70 -136 70 -144 18 -194 -24 -22 -84 -63 -133 -90 -172 -95 -208 -127
-206 -188 3 -118 11 -138 70 -167 53 -27 114 -39 247 -51 143 -13 180 -23 188
-53 3 -12 6 -96 7 -187 0 -91 6 -185 12 -209 14 -51 45 -79 97 -85 19 -2 46
-9 60 -14 62 -23 126 26 229 177 73 107 114 151 129 137 3 -4 6 -93 7 -199 2
-244 4 -248 115 -287 56 -19 78 -23 105 -16 43 11 111 82 172 180 110 176 126
189 196 158 23 -11 77 -44 120 -75 78 -56 178 -97 237 -97 35 0 138 82 147
118 11 47 -17 155 -73 274 -45 95 -55 125 -52 160 l3 42 117 66 c242 135 289
195 239 305 -22 49 -69 90 -119 105 -20 6 -76 14 -124 17 -49 3 -88 8 -88 10
0 2 11 28 25 58 27 56 133 165 161 165 22 0 78 -31 172 -94 80 -54 159 -86
212 -86 43 0 120 27 146 51 30 28 40 94 25 157 -7 26 -38 94 -70 152 -102 183
-101 205 18 273 l83 47 48 -26 c26 -14 65 -43 85 -64 34 -34 37 -42 31 -74 -4
-19 -34 -90 -68 -158 -54 -108 -62 -130 -66 -195 l-5 -73 47 -45 c58 -55 79
-61 159 -45 76 15 111 32 207 104 141 105 181 97 273 -54 l57 -95 -92 -6
c-173 -12 -224 -42 -246 -146 -14 -68 -8 -96 34 -150 22 -29 169 -113 198
-113 7 0 32 -20 56 -45 24 -25 52 -45 62 -45 15 0 18 -8 18 -44 0 -31 -14 -72
-50 -147 -54 -113 -85 -226 -76 -274 4 -20 25 -49 57 -79 l51 -49 59 6 c75 7
145 39 248 115 133 99 158 91 276 -88 78 -119 161 -200 205 -200 18 0 46 6 63
14 18 8 44 17 59 20 15 4 34 16 42 29 23 35 36 143 35 297 0 78 2 144 5 147
14 14 63 -37 122 -127 118 -182 151 -207 250 -188 141 26 145 35 154 313 4
110 8 201 8 201 10 8 115 26 223 38 153 18 228 37 254 66 23 25 37 128 24 174
-15 55 -96 121 -221 180 -62 29 -124 65 -137 79 -32 35 -25 65 48 209 33 64
63 136 66 161 9 59 -16 147 -55 190 -25 28 -34 32 -77 31 -66 -1 -138 -27
-215 -78 l-66 -43 -6 30 c-16 80 3 244 31 264 10 8 49 13 97 13 123 0 253 18
297 40 78 40 116 141 85 225 -24 61 -67 95 -216 170 -123 62 -160 91 -160 125
0 9 18 52 39 97 l39 81 49 4 c26 2 74 2 106 0 55 -4 58 -6 73 -40 8 -19 23
-84 34 -144 44 -246 69 -288 170 -288 121 0 187 62 250 234 22 61 50 127 61
145 20 33 20 33 77 26 31 -4 94 -21 141 -38 l84 -30 -75 -71 c-134 -126 -152
-170 -105 -266 41 -84 132 -104 336 -75 67 9 137 14 155 11 43 -8 55 -36 92
-215 14 -68 34 -148 45 -177 19 -49 24 -55 62 -65 23 -6 52 -15 65 -20 46 -18
81 -10 123 28 49 45 79 95 123 207 50 127 81 176 112 176 14 0 81 -18 147 -40
159 -53 243 -66 290 -47 19 9 38 23 41 34 3 10 19 25 35 34 62 36 47 127 -42
243 -136 179 -161 226 -120 226 10 0 78 -21 152 -46 192 -66 279 -68 306 -6 5
12 15 22 21 22 17 0 42 32 49 63 9 35 -17 117 -56 173 -15 23 -58 74 -94 113
-122 134 -116 160 70 301 90 68 117 97 149 158 19 37 16 69 -15 128 -10 21
-19 43 -19 50 0 22 -36 43 -85 49 -29 4 -102 0 -172 -9 -127 -17 -194 -20
-229 -10 -26 7 -43 57 -74 212 -23 116 -51 198 -80 235 -38 48 -144 44 -221
-9 -38 -26 -86 -105 -109 -179 -7 -22 -15 -43 -17 -48 -5 -9 -122 125 -145
166 -37 68 -17 101 120 204 101 75 163 144 175 191 9 37 -19 112 -55 149 -21
22 -52 39 -86 49 -49 14 -64 14 -170 -1 -64 -9 -142 -15 -172 -13 -53 3 -56 4
-73 41 -10 22 -26 68 -35 104 l-17 65 30 24 c17 14 56 43 88 64 72 49 68 50
197 -79 114 -115 151 -136 240 -136 53 0 74 5 111 27 75 44 76 53 32 268 -14
69 -26 151 -27 183 -1 51 2 60 23 77 20 14 210 80 233 80 3 0 0 -24 -8 -53
-40 -155 -36 -250 12 -284 14 -10 38 -28 54 -41 33 -26 66 -30 126 -13 33 9
66 35 150 119 60 59 126 116 147 127 38 20 38 20 74 0 20 -11 69 -57 108 -103
38 -45 88 -94 109 -109 50 -33 122 -42 174 -21 20 9 50 19 67 24 16 5 35 21
42 34 21 41 15 165 -12 275 -14 55 -25 124 -25 152 l0 53 48 24 c26 13 88 35
137 50 130 39 208 73 240 106 26 28 28 32 21 95 -4 36 -12 77 -18 90 -18 40
-96 82 -240 129 -74 24 -145 49 -158 56 -23 12 -23 13 -4 27 10 8 78 32 149
55 167 53 230 80 248 110 9 12 19 58 22 101 7 73 6 80 -16 104 -31 33 -120 74
-238 107 -52 15 -116 38 -143 52 l-48 24 0 53 c0 28 11 97 25 152 26 105 33
218 14 257 -15 34 -119 88 -169 88 -69 0 -108 -25 -220 -140 -123 -126 -141
-135 -203 -95 -94 62 -156 117 -181 160 -49 82 -150 112 -217 63 -19 -13 -46
-30 -61 -37 -15 -8 -31 -26 -36 -41 -12 -32 1 -170 22 -248 l15 -54 -37 7
c-46 9 -182 60 -208 79 -26 20 -23 108 11 256 36 162 36 193 -6 236 -69 71
-179 83 -263 28 -23 -15 -82 -69 -132 -121 -60 -62 -98 -93 -113 -93 -22 0
-100 47 -156 94 l-30 26 17 64 c9 35 25 81 35 103 18 37 19 38 78 41 33 2 101
-4 151 -12 115 -20 157 -20 223 0 44 13 54 20 68 52 9 20 20 47 26 59 31 69
-15 149 -154 269 -145 125 -156 143 -123 207 26 50 127 178 135 169 3 -4 17
-38 30 -76 27 -77 85 -151 136 -172 18 -8 58 -14 89 -14 52 0 59 3 89 35 39
41 66 117 94 265 29 154 36 168 79 176 21 4 111 -1 202 -10 229 -25 239 -20
309 133 27 58 -36 155 -159 246 -182 134 -187 158 -63 298 85 93 117 141 137
202 19 55 15 89 -16 122 -11 12 -26 32 -32 45 -15 29 -52 48 -97 48 -47 0
-167 -31 -249 -64 -36 -15 -82 -29 -102 -33 -33 -5 -38 -3 -38 14 0 24 40 87
114 178 106 131 127 206 74 262 -11 12 -26 32 -32 45 -34 69 -178 62 -348 -16
-146 -68 -193 -48 -244 106 -42 129 -69 183 -115 233 -40 44 -46 46 -84 42
-172 -21 -205 -57 -215 -232 -5 -107 -7 -114 -45 -178 -49 -82 -57 -84 -220
-63 -164 22 -250 19 -298 -9 -21 -13 -57 -108 -57 -153 0 -42 31 -103 68 -134
16 -14 59 -42 96 -63 36 -22 63 -42 58 -46 -19 -18 -194 -68 -246 -71 l-60 -3
-22 40 c-13 22 -40 86 -60 143 -57 159 -123 232 -211 232 -86 0 -150 -46 -178
-129 -8 -25 -20 -97 -26 -160 -6 -68 -17 -131 -27 -151 -16 -32 -22 -36 -72
-42 -30 -4 -81 -5 -112 -2 l-56 6 -26 58 c-43 94 -32 168 32 222 16 13 69 39
118 56 138 49 194 108 194 199 -1 51 -31 115 -66 140 -45 32 -96 42 -264 54
-106 7 -159 14 -169 24 -21 21 -32 110 -25 206 l7 87 72 -47 c80 -53 180 -86
229 -77 37 7 110 79 120 118 10 41 -19 161 -55 231 -18 34 -41 79 -52 100 -10
20 -23 54 -28 74 -7 35 -6 40 35 78 23 22 91 67 151 100 59 33 126 76 149 96
l40 36 -2 73 c-2 85 -16 111 -70 138 -53 27 -112 40 -242 52 -97 9 -186 24
-191 33 -1 1 -5 97 -9 212 -4 139 -11 219 -20 237 -13 27 -48 47 -91 52 -14 1
-31 6 -38 10 -29 18 -78 9 -124 -22 -34 -24 -67 -64 -122 -147 -69 -105 -117
-157 -131 -142 -3 3 -5 69 -5 147 1 162 -12 264 -38 300 -16 22 -49 35 -138
57 -65 16 -121 -33 -229 -199 -46 -70 -94 -134 -107 -143 -35 -23 -65 -12
-174 62 -150 102 -238 131 -302 99 -17 -9 -31 -21 -31 -26 0 -5 -12 -15 -27
-22 -77 -37 -64 -156 36 -355 31 -63 41 -94 41 -132 l0 -49 -107 -56 c-127
-66 -237 -146 -259 -188 -29 -56 3 -153 67 -201 35 -25 129 -47 207 -47 36 0
62 -4 62 -10 0 -6 -11 -32 -24 -58 -24 -47 -134 -162 -156 -162 -24 0 -81 31
-171 92 -136 93 -229 109 -329 58 -47 -24 -56 -36 -65 -87 -10 -60 16 -137 85
-263 95 -170 92 -189 -39 -260 l-74 -40 -47 26 c-26 14 -65 43 -85 64 l-38 39
12 48 c7 26 34 89 62 140 56 105 82 192 74 244 -6 36 -57 93 -105 119 -57 30
-180 -10 -297 -95 -157 -116 -187 -112 -282 42 l-60 98 92 6 c175 12 226 42
247 144 11 52 10 64 -7 104 -23 56 -92 111 -178 142 -39 14 -73 36 -96 60 -20
21 -48 43 -63 48 -42 17 -35 65 28 200 57 123 82 213 72 265 -8 41 -81 113
-122 122 -75 15 -154 -18 -312 -129 -80 -56 -119 -63 -158 -26 -15 13 -59 74
-100 135 -84 128 -156 195 -208 193 -17 -1 -58 -11 -91 -23z m3139 -1482 c11
-29 7 -244 -5 -244 -10 0 -159 50 -167 56 -7 5 144 203 154 203 7 1 15 -6 18
-15z m-2875 -42 c25 -27 58 -71 73 -99 l28 -51 -84 -26 c-46 -14 -87 -26 -90
-26 -8 0 -8 179 0 219 4 17 11 31 17 31 6 0 31 -22 56 -48z m1629 -865 c29 -8
59 -20 65 -26 8 -8 13 -65 15 -162 l4 -150 -34 6 c-23 4 -48 1 -73 -9 -35 -15
-39 -15 -51 1 -7 10 -14 22 -14 26 0 4 -20 17 -45 28 -38 17 -51 18 -79 9 -18
-6 -39 -22 -46 -35 l-13 -25 -29 29 c-54 55 -122 48 -163 -16 -23 -37 -25 -38
-48 -20 -13 9 -18 36 -23 118 -4 58 -4 127 0 153 7 42 12 49 41 62 19 8 65 18
102 23 91 13 325 6 391 -12z m714 -249 c86 -51 140 -67 262 -78 54 -4 104 -14
110 -20 7 -7 11 -72 12 -193 1 -164 3 -188 24 -241 17 -45 29 -61 51 -70 41
-15 36 -26 -11 -26 -45 0 -110 -23 -110 -39 0 -16 -52 10 -76 39 -17 19 -20
30 -12 49 10 28 3 76 -17 107 -12 19 -10 22 15 37 15 9 35 33 45 53 34 71 -4
137 -87 150 -33 6 -38 10 -38 34 0 42 -19 86 -43 99 -12 6 -49 18 -82 26 -68
15 -110 5 -138 -35 -15 -22 -17 -22 -50 -6 -19 9 -52 16 -73 16 l-38 0 74 75
c85 85 78 84 182 23z m-1729 18 c13 -13 47 -66 77 -116 68 -114 122 -165 195
-181 l54 -12 -19 -27 c-10 -14 -22 -38 -25 -53 -6 -22 -14 -27 -48 -32 -70 -9
-88 -4 -94 27 -5 25 -47 78 -62 78 -3 0 -12 4 -19 8 -10 7 -10 14 3 38 19 37
19 58 0 99 -26 53 -98 72 -159 40 -28 -15 -31 -14 -56 10 -39 38 -82 47 -144
31 -92 -25 -103 -36 -108 -111 -3 -37 -5 -40 -41 -47 -20 -4 -48 -15 -60 -23
-13 -8 -27 -12 -30 -8 -12 12 -7 139 6 156 9 12 38 20 107 27 119 12 176 29
265 80 83 47 126 51 158 16z m1427 -286 c8 -16 8 -20 -4 -20 -22 0 -73 -55
-79 -87 -6 -32 -24 -37 -94 -28 -36 5 -42 10 -48 36 -4 17 -23 46 -42 65 -19
20 -32 38 -29 41 3 3 11 1 18 -5 7 -5 49 -13 93 -16 67 -6 86 -4 120 13 51 25
52 25 65 1z m-2457 -40 c19 -16 57 -68 85 -115 l50 -85 -29 -31 c-16 -17 -29
-34 -29 -38 0 -4 -31 -7 -69 -7 -81 1 -108 -16 -117 -74 l-6 -36 -54 0 c-72 1
-96 -22 -102 -98 -3 -43 -8 -56 -21 -56 -9 0 -25 -3 -37 -6 -17 -4 -33 8 -78
63 -109 129 -119 173 -54 231 24 20 82 74 130 119 92 86 137 115 228 144 71
23 64 24 103 -11z m3773 -10 c97 -49 230 -148 308 -229 56 -60 58 -64 52 -103
-9 -58 -30 -92 -100 -167 -34 -37 -68 -75 -75 -86 -9 -15 -14 -16 -18 -7 -11
27 -48 53 -84 58 -36 6 -37 7 -41 61 -6 75 -31 98 -102 97 l-54 0 -6 36 c-9
57 -36 75 -115 74 -36 0 -69 5 -73 10 -4 6 3 24 16 41 13 16 49 71 80 122 55
89 95 133 121 133 7 0 48 -18 91 -40z m-3221 -155 c-20 -31 -27 -79 -16 -108
9 -23 6 -29 -19 -51 -41 -34 -68 -41 -88 -23 -9 8 -27 18 -40 22 -22 6 -21 8
16 35 42 30 76 90 87 152 l7 37 33 -22 c29 -19 31 -23 20 -42z m-2420 -106
c55 -17 102 -33 104 -34 2 -2 -21 -37 -51 -78 l-54 -75 -47 42 c-41 37 -72 84
-97 151 -9 23 -7 25 18 25 15 0 73 -14 127 -31z m7515 26 c0 -22 -36 -81 -86
-141 l-59 -70 -49 67 c-26 37 -47 71 -46 76 7 23 240 89 240 68z m-4363 -279
c-11 -27 13 -85 43 -106 32 -23 81 -30 118 -17 20 8 22 5 22 -30 0 -32 -6 -43
-30 -61 -16 -13 -30 -29 -30 -38 0 -16 -46 -38 -61 -28 -5 3 -9 12 -9 20 0 8
-12 27 -27 42 -22 22 -26 34 -24 73 2 41 -1 49 -28 72 -19 15 -31 35 -31 50 0
30 7 37 38 37 17 0 22 -4 19 -14z m1033 -15 c0 -20 -10 -40 -31 -60 -26 -27
-30 -37 -28 -76 2 -36 -2 -49 -20 -66 -12 -11 -26 -32 -31 -45 -11 -28 -34
-31 -55 -6 -55 62 -66 83 -61 109 6 25 11 28 50 29 27 1 55 9 74 23 33 23 57
77 46 104 -5 14 0 17 25 17 28 0 31 -3 31 -29z m-1540 -153 c14 -17 16 -28 9
-47 -12 -29 2 -75 31 -106 16 -17 18 -27 11 -52 -5 -16 -7 -42 -4 -56 7 -34
-29 -56 -53 -32 -8 8 -33 18 -55 21 -22 4 -39 12 -39 19 0 8 -2 20 -6 28 -3 9
6 19 27 27 57 24 69 89 31 164 -13 27 -13 31 4 43 23 17 23 17 44 -9z m2035 8
c15 -10 17 -17 8 -27 -6 -8 -16 -31 -22 -51 -11 -32 -10 -43 8 -82 14 -32 27
-47 45 -52 44 -11 25 -58 -26 -69 -18 -4 -38 -12 -45 -17 -7 -5 -22 -8 -35 -6
-21 3 -24 10 -28 66 -4 56 -2 66 17 84 27 25 36 59 23 93 -8 21 -6 31 8 50 20
29 22 29 47 11z m1115 -56 c0 -32 25 -74 66 -110 35 -30 41 -32 89 -27 l52 5
-15 -42 -15 -42 -58 1 c-46 0 -63 -4 -80 -21 -18 -19 -25 -20 -50 -11 -16 6
-29 17 -29 23 0 6 -7 17 -15 24 -11 9 -12 17 -5 30 13 24 13 82 0 116 -9 22
-8 29 5 36 8 5 21 15 28 23 17 20 27 18 27 -5z m-4578 -86 c181 -59 257 -64
294 -21 l24 28 0 -38 c0 -21 4 -44 9 -52 11 -17 -16 -66 -45 -82 -18 -9 -27
-7 -54 12 -24 18 -44 24 -84 23 -53 0 -53 0 -67 40 -17 48 -67 86 -114 86 -39
0 -81 -38 -90 -81 -4 -16 -9 -29 -11 -29 -3 0 -25 5 -48 11 -35 9 -49 8 -73
-4 l-29 -16 4 32 c6 42 89 137 119 137 13 0 87 -21 165 -46z m5170 -2 c31 -33
47 -61 52 -87 11 -58 36 -92 120 -169 42 -37 79 -78 82 -91 8 -31 -23 -86 -96
-170 -86 -100 -114 -160 -112 -245 1 -54 -3 -71 -17 -84 -18 -16 -21 -16 -52
3 -19 12 -50 21 -69 21 -66 0 -120 103 -67 127 25 12 57 68 57 101 0 17 8 20
57 24 46 4 61 10 80 32 38 45 27 122 -26 170 -20 19 -20 19 -1 44 32 40 26 94
-17 157 -46 66 -76 81 -129 66 -33 -9 -41 -8 -51 6 -7 9 -13 22 -13 28 0 6 -9
21 -21 34 -12 12 -18 25 -15 28 12 12 141 52 167 53 19 0 39 -14 71 -48z
m-5524 -258 c0 -21 9 -48 20 -63 l19 -26 -31 -38 c-26 -33 -31 -48 -31 -93 l0
-53 -38 37 c-45 44 -81 114 -72 141 4 15 121 131 132 131 0 0 1 -16 1 -36z
m2402 -104 c0 -5 -4 -10 -10 -10 -5 0 -10 5 -10 10 0 6 5 10 10 10 6 0 10 -4
10 -10z m770 0 c0 -5 -5 -10 -11 -10 -5 0 -7 5 -4 10 3 6 8 10 11 10 2 0 4 -4
4 -10z m-49 -90 c-5 -31 -47 -100 -54 -89 -1 2 -12 18 -24 35 -30 43 -21 74
21 74 17 0 38 4 46 10 19 12 19 11 11 -30z m-591 -5 c0 -13 -6 -28 -13 -32 -7
-4 -20 -19 -29 -31 l-16 -24 -15 24 c-9 14 -13 36 -10 56 5 30 8 32 44 32 35
0 39 -3 39 -25z m-1570 -29 c51 -50 92 -51 144 -5 35 30 35 30 55 10 26 -26
32 -124 9 -148 -15 -14 -18 -14 -39 1 -13 9 -38 16 -55 16 -26 0 -34 6 -44 30
-15 36 -37 50 -77 50 -21 0 -36 9 -51 30 -20 27 -21 30 -4 39 24 14 22 15 62
-23z m3691 24 c19 -11 19 -11 -3 -40 -15 -20 -30 -30 -49 -30 -30 0 -75 -32
-84 -60 -5 -14 -15 -19 -40 -18 -18 1 -46 -7 -60 -16 -37 -24 -47 -11 -47 62
-1 47 4 65 20 83 l22 22 20 -25 c42 -54 112 -53 165 2 33 34 30 33 56 20z
m-2611 -25 c0 -8 -2 -15 -4 -15 -2 0 -6 7 -10 15 -3 8 -1 15 4 15 6 0 10 -7
10 -15z m22 -157 c-2 -21 -7 -38 -11 -38 -27 1 -54 17 -62 38 -8 20 -5 28 16
48 14 13 25 31 25 41 0 11 7 4 18 -17 13 -23 17 -48 14 -72z m-1971 72 c34 0
39 -3 39 -22 0 -30 33 -84 61 -98 26 -14 21 -54 -13 -100 -17 -24 -29 -30 -58
-30 l-35 0 -2 59 c-1 60 -24 127 -63 181 l-21 30 26 -10 c14 -5 44 -10 66 -10z
m3467 -18 c29 -27 29 -29 13 -49 -9 -12 -31 -24 -48 -28 -32 -6 -33 -5 -33 25
0 24 24 77 36 80 1 0 15 -13 32 -28z m-3842 -272 c78 -31 82 -34 87 -68 7 -41
3 -52 -23 -52 -27 0 -76 -53 -84 -90 -3 -19 0 -45 9 -66 l14 -34 -34 -14 c-18
-8 -39 -24 -45 -37 -17 -31 -6 -96 21 -125 l22 -23 -32 -36 c-17 -20 -31 -41
-31 -48 0 -14 -188 28 -244 54 l-29 13 6 96 c10 166 64 323 146 428 l39 49 49
-7 c26 -5 85 -23 129 -40z m6423 6 c11 -24 35 -59 54 -78 26 -26 39 -53 55
-114 27 -98 42 -199 42 -282 0 -74 8 -68 -169 -113 -66 -16 -130 -39 -153 -54
-24 -16 -38 -21 -37 -13 5 41 -4 71 -32 103 l-32 36 22 23 c30 32 39 98 18
130 -9 13 -32 30 -52 36 -35 11 -36 13 -19 31 22 24 22 88 0 121 -10 15 -35
33 -57 42 -39 16 -53 46 -28 62 27 16 317 113 342 113 24 1 31 -6 46 -43z
m-5480 -63 c5 -29 31 -52 73 -65 28 -8 43 -20 54 -42 8 -17 21 -42 29 -56 18
-31 11 -38 -57 -61 -50 -16 -54 -17 -73 -1 -11 9 -22 18 -24 19 -1 1 4 12 13
25 35 49 3 128 -62 155 -47 19 -45 16 -31 46 11 24 13 24 43 12 17 -7 33 -21
35 -32z m4321 -4 c0 -3 -18 -13 -40 -23 -73 -32 -97 -88 -65 -150 9 -16 14
-30 13 -31 -51 -35 -50 -34 -79 -19 -15 7 -35 14 -43 14 -8 0 -22 10 -30 22
-14 20 -14 24 3 43 11 11 24 32 30 46 7 19 19 28 43 33 47 9 75 31 83 64 8 39
55 57 72 28 7 -12 12 -24 13 -27z m-3390 -58 c0 -32 -1 -33 -31 -27 -27 5 -68
39 -69 57 0 4 11 10 25 13 14 4 29 14 32 23 10 25 43 -25 43 -66z m-175 49 c3
-5 1 -10 -4 -10 -6 0 -11 5 -11 10 0 6 2 10 4 10 3 0 8 -4 11 -10z m2652 -19
c20 -11 -20 -47 -60 -55 -36 -7 -37 -6 -37 22 0 39 18 54 55 46 16 -3 35 -9
42 -13z m-1439 -296 c2 -2 0 -29 -5 -61 l-8 -59 -94 -27 -93 -28 -22 27 c-11
15 -29 34 -38 42 -16 14 -16 16 5 37 13 12 35 26 49 29 15 4 34 15 43 25 9 10
22 17 29 14 7 -3 23 0 37 5 20 8 86 5 97 -4z m420 0 c8 3 24 -4 34 -15 10 -11
26 -21 36 -22 9 0 22 -2 27 -2 6 -1 23 -11 37 -22 l27 -21 -27 -24 c-15 -13
-34 -34 -42 -46 l-15 -23 -90 26 c-49 14 -93 29 -96 32 -4 4 -9 30 -12 58 -6
51 -5 52 26 61 19 6 42 6 56 1 14 -5 31 -6 39 -3z m1327 5 c-3 -5 -10 -10 -16
-10 -5 0 -9 5 -9 10 0 6 7 10 16 10 8 0 12 -4 9 -10z m-3073 -104 c10 -11 18
-24 18 -27 0 -13 -53 -29 -76 -23 -20 5 -24 11 -20 28 3 11 6 29 6 39 0 14 5
16 28 11 15 -4 35 -16 44 -28z m3022 10 c3 -13 8 -31 12 -39 7 -20 -30 -28
-69 -15 -18 6 -33 12 -35 14 -9 7 32 53 51 57 12 2 25 5 28 6 4 0 10 -10 13
-23z m-2152 -269 c-3 -12 -53 -87 -84 -128 l-27 -36 -49 16 c-47 15 -50 18
-50 53 0 20 6 42 14 49 8 6 14 20 14 30 0 11 11 24 25 31 13 6 28 24 34 39 6
19 17 29 30 29 11 0 23 5 26 11 7 10 71 -79 67 -94z m1328 58 c5 -13 18 -29
29 -37 30 -21 68 -81 73 -116 4 -29 2 -31 -53 -49 l-58 -19 -49 65 c-69 91
-75 106 -56 122 8 7 22 25 29 39 12 22 19 26 45 22 21 -3 34 -12 40 -27z
m-3704 -80 c13 -39 47 -74 72 -75 17 0 15 -47 -5 -91 -16 -33 -23 -39 -51 -39
-36 0 -65 -12 -97 -40 -19 -16 -22 -16 -54 6 l-33 23 58 26 c85 38 94 48 94
114 0 31 -4 71 -9 89 -14 48 8 37 25 -13z m6078 25 c-3 -8 -8 -41 -11 -72 -7
-71 7 -96 80 -138 l52 -30 -34 0 c-18 0 -50 -10 -71 -21 l-38 -21 -30 22 c-16
12 -50 24 -73 27 -39 5 -46 10 -61 42 -27 57 -24 85 12 98 27 10 47 41 63 93
3 11 19 15 61 15 46 0 55 -3 50 -15z m-5350 -168 c4 -10 16 -29 28 -42 20 -21
23 -33 19 -70 0 -5 -7 -10 -14 -10 -7 0 -29 -9 -50 -19 -36 -19 -38 -19 -74 0
-40 21 -76 18 -104 -7 -22 -20 -69 -2 -69 25 0 28 11 32 54 20 71 -20 137 21
139 85 1 34 3 36 33 36 23 0 34 -6 38 -18z m4573 4 c-3 -8 3 -32 14 -54 26
-52 63 -68 121 -54 48 12 58 9 58 -19 0 -31 -37 -38 -82 -16 -36 18 -42 18
-78 5 -35 -14 -43 -14 -91 2 -72 25 -83 49 -40 89 17 16 31 36 31 45 0 12 10
16 36 16 27 0 35 -4 31 -14z m1023 -102 c25 -4 59 -17 75 -29 17 -12 44 -27
61 -34 l31 -12 0 -254 0 -255 -34 -11 c-18 -6 -46 -21 -61 -33 -15 -13 -48
-26 -77 -31 -62 -9 -194 -59 -229 -86 -21 -16 -26 -29 -26 -64 0 -46 -11 -55
-71 -55 -23 0 -28 5 -33 34 -6 32 -54 86 -77 86 -15 0 -10 56 9 90 13 25 22
30 42 26 32 -6 83 16 102 43 l16 22 37 -25 c99 -67 207 4 175 115 -5 18 -9 33
-7 33 29 9 84 47 93 65 7 14 11 56 10 97 -2 82 -17 108 -70 123 -23 6 -30 13
-28 27 11 58 6 103 -13 124 l-20 23 25 -6 c14 -3 45 -9 70 -13z m-6632 -35
c-8 -22 -8 -41 0 -67 13 -40 9 -52 -18 -52 -10 0 -31 -11 -46 -24 -26 -21 -28
-30 -30 -104 -3 -92 10 -119 68 -142 18 -8 34 -14 35 -15 2 -1 -2 -16 -7 -34
-31 -110 76 -182 173 -117 l36 25 32 -30 c30 -28 49 -34 94 -31 24 2 55 -47
55 -86 -1 -19 -10 -33 -33 -47 -17 -11 -38 -34 -46 -50 l-15 -30 -7 35 c-13
63 -106 118 -244 143 -33 6 -73 20 -90 32 -16 12 -43 27 -60 34 l-30 11 0 255
0 254 41 16 c23 9 50 25 59 35 29 32 46 26 33 -11z m1622 7 c5 -13 14 -27 21
-31 18 -11 -39 -32 -73 -27 -16 3 -27 7 -25 11 2 3 9 21 16 39 16 39 47 43 61
8z m3386 2 c3 -13 13 -30 21 -39 12 -15 11 -18 -16 -27 -24 -8 -37 -7 -61 4
-16 9 -30 19 -30 22 1 12 35 49 50 55 25 9 28 8 36 -15z m-2572 -144 l47 -16
-3 -106 -3 -106 -35 -9 c-19 -5 -42 -15 -52 -24 -15 -13 -18 -11 -33 21 -23
48 -23 181 -1 224 19 37 18 37 80 16z m1785 -15 c17 -39 17 -179 -1 -219 -13
-29 -27 -37 -42 -22 -4 4 -24 12 -44 17 l-37 11 -3 102 -3 103 43 19 c60 26
71 25 87 -11z m-5373 -86 c-3 -21 -6 -62 -6 -92 l0 -53 -37 6 c-127 23 -227
72 -193 96 14 10 215 78 234 79 5 1 6 -16 2 -36z m9117 -3 c55 -17 97 -43 97
-60 0 -10 -54 -31 -157 -63 l-83 -25 0 90 0 90 43 -7 c23 -4 68 -15 100 -25z
m-2935 -235 c1 -1 -5 -16 -14 -33 -20 -41 -49 -42 -69 -1 -9 17 -15 32 -13 32
2 1 12 7 23 13 18 10 39 7 73 -11z m-3403 3 c14 -6 25 -14 25 -18 0 -18 -30
-43 -56 -46 -24 -2 -32 3 -45 31 -11 24 -13 36 -5 39 21 8 55 6 81 -6z m-776
-34 c29 -15 35 -14 80 2 48 17 49 17 76 -4 15 -12 35 -22 44 -22 20 0 41 -19
41 -37 0 -7 -14 -32 -31 -56 -25 -35 -36 -42 -65 -42 -30 -1 -34 2 -34 26 0
17 -12 39 -31 59 -30 29 -36 31 -93 29 -59 -3 -61 -2 -64 23 -3 25 3 30 39 37
3 0 20 -6 38 -15z m4797 1 c36 -18 42 -18 75 -1 15 7 39 11 53 9 22 -5 27 -10
24 -32 -3 -25 -5 -26 -64 -23 -54 3 -64 1 -92 -23 -24 -20 -32 -35 -32 -60 0
-32 -2 -33 -35 -32 -19 1 -35 5 -35 8 0 3 -11 22 -24 42 -39 57 -37 68 19 98
58 32 73 34 111 14z m-3016 -223 c30 -42 56 -79 58 -83 2 -4 -10 -25 -25 -48
-26 -37 -31 -40 -63 -34 -19 3 -37 10 -39 15 -1 5 -14 21 -27 35 -13 14 -24
34 -24 43 0 9 -8 25 -19 34 -12 11 -19 31 -19 55 -1 37 1 39 41 49 23 5 47 10
52 10 6 1 35 -33 65 -76z m1443 61 c33 -5 37 -9 37 -35 0 -17 -9 -41 -20 -55
-11 -14 -20 -32 -20 -39 0 -18 -68 -86 -101 -101 -25 -11 -28 -9 -59 34 l-32
46 43 61 c23 34 50 71 58 84 11 15 22 20 36 17 11 -4 37 -9 58 -12z m2387
-318 c16 -19 97 -49 195 -70 44 -10 95 -24 113 -32 32 -13 32 -14 32 -82 0
-173 -80 -402 -170 -485 -24 -22 -28 -23 -80 -11 -30 7 -100 29 -155 48 -55
20 -112 38 -127 41 -24 6 -26 9 -18 36 5 17 6 45 3 64 -5 30 -3 34 23 40 67
17 106 89 80 150 -12 30 -13 36 -1 36 7 0 28 12 45 27 30 25 32 30 28 75 -3
28 -14 62 -26 77 l-21 29 25 23 c13 12 24 28 24 36 0 17 15 17 30 -2z m-3391
-48 l56 -22 5 -59 c5 -54 4 -59 -19 -67 -15 -6 -28 -6 -37 2 -7 6 -29 11 -48
11 -20 0 -40 6 -47 14 -6 8 -26 14 -43 14 -21 1 -37 8 -48 24 -16 23 -16 26 2
64 11 22 25 43 32 46 21 9 87 -3 147 -27z m585 5 c8 -16 22 -34 30 -41 13 -11
14 -15 1 -27 -8 -8 -18 -20 -22 -27 -11 -16 -82 -52 -89 -45 -3 3 -20 2 -37
-3 -18 -4 -47 -5 -66 -1 -33 7 -34 9 -34 55 0 27 4 52 9 57 12 11 154 59 176
60 10 0 24 -13 32 -28z m-3486 -42 c-12 -16 -23 -50 -26 -78 -4 -45 -2 -50 28
-75 17 -15 38 -27 46 -27 17 0 18 -12 3 -27 -6 -6 -12 -30 -13 -52 0 -31 6
-47 28 -70 16 -17 42 -33 58 -37 28 -5 29 -9 24 -39 -4 -19 -1 -50 7 -73 l14
-40 -115 -43 c-64 -23 -134 -43 -156 -43 -37 -1 -41 1 -50 34 -6 19 -28 52
-49 73 -56 56 -93 187 -104 367 l-6 96 27 12 c14 6 71 23 125 37 54 13 109 29
122 34 17 6 29 5 41 -6 16 -14 16 -17 -4 -43z m1635 48 c12 -7 24 -14 26 -16
13 -7 -28 -56 -57 -68 -42 -17 -43 -17 -36 1 3 8 1 29 -5 45 -9 28 -8 32 12
40 30 12 34 12 60 -2z m3022 -4 c14 -9 22 -21 18 -27 -3 -6 -9 -22 -12 -37 -6
-24 -9 -26 -38 -18 -22 6 -33 15 -33 26 0 10 -5 23 -12 30 -14 14 -3 28 27 35
11 3 21 5 23 6 1 0 14 -6 27 -15z m-3105 -149 c0 -9 -9 -15 -22 -15 -22 1 -23
1 -4 15 25 19 26 19 26 0z m3165 -5 c3 -5 2 -10 -4 -10 -5 0 -13 5 -16 10 -3
6 -2 10 4 10 5 0 13 -4 16 -10z m-3595 -110 c24 0 33 -6 41 -27 8 -22 6 -30
-14 -52 -13 -14 -27 -34 -30 -43 -4 -12 -17 -18 -36 -18 -47 0 -62 -10 -82
-56 -10 -24 -23 -44 -28 -44 -5 0 -16 -2 -23 -5 -9 -4 -19 4 -26 20 -12 25
-10 27 37 47 35 14 53 28 61 49 14 34 7 85 -16 110 -14 16 -13 19 13 33 24 13
31 13 50 0 12 -8 36 -14 53 -14z m4095 14 l25 -16 -20 -25 c-40 -51 -16 -119
54 -153 39 -18 44 -24 37 -43 -5 -12 -13 -22 -20 -21 -6 1 -18 2 -26 3 -8 0
-22 16 -31 34 -21 42 -53 67 -86 67 -21 0 -28 6 -33 30 -4 16 -16 38 -28 47
-13 10 -22 24 -21 31 1 6 2 17 3 22 0 6 18 10 39 10 20 0 46 7 56 15 24 18 22
18 51 -1z m-871 -124 c29 -11 65 -70 43 -70 -8 0 -22 -9 -32 -20 -27 -30 -44
-9 -43 51 1 27 3 49 4 49 2 0 14 -4 28 -10z m-2414 -32 c0 -18 -7 -42 -15 -52
-14 -18 -16 -18 -33 -3 -10 9 -31 17 -47 17 l-29 0 28 29 c16 17 40 32 55 34
14 2 29 5 34 6 4 0 7 -14 7 -31z m-1507 -167 c16 -6 41 -11 57 -11 31 0 53
-26 64 -76 6 -26 3 -32 -19 -44 -30 -16 -46 -41 -55 -85 -5 -25 -11 -31 -39
-33 -31 -3 -33 -2 -27 20 26 90 11 176 -40 230 -32 32 -23 60 10 29 11 -11 34
-24 49 -30z m5518 -1 c5 0 -3 -19 -18 -42 -22 -32 -28 -52 -26 -88 4 -88 37
-153 128 -250 62 -67 86 -100 91 -126 7 -36 5 -38 -93 -133 -98 -94 -101 -97
-108 -151 -6 -47 -13 -62 -53 -102 -30 -32 -55 -48 -71 -48 -13 0 -69 16 -125
35 -208 71 -283 80 -325 38 -69 -69 -65 -67 -105 -41 -31 20 -35 27 -29 48 13
45 8 107 -10 128 -16 18 -16 20 1 35 10 10 25 17 33 17 8 1 25 7 38 14 21 12
28 11 55 -5 19 -11 50 -19 77 -19 45 0 47 -1 53 -33 10 -53 48 -82 108 -82 43
0 53 4 79 33 16 18 29 40 29 48 0 14 8 15 45 9 75 -11 101 0 140 59 40 60 47
124 19 164 -15 22 -15 25 4 45 48 53 57 125 21 171 -18 22 -28 26 -74 26 l-54
0 -11 41 c-11 38 -51 89 -71 89 -18 0 -8 56 14 81 15 18 35 28 65 32 24 3 57
16 75 30 l32 25 28 -24 c16 -13 33 -24 38 -24z m-2074 -151 c17 -5 35 -20 40
-31 8 -18 5 -26 -16 -44 -24 -21 -27 -21 -43 -7 -15 14 -27 93 -14 93 1 0 17
-5 33 -11z m-1463 -31 c4 -21 1 -37 -9 -48 -8 -9 -15 -25 -15 -36 0 -17 -3
-16 -23 8 -12 14 -32 29 -45 33 -23 7 -23 7 -5 27 16 18 66 46 84 48 4 0 9
-14 13 -32z m-884 -17 c7 -101 4 -122 -18 -137 -22 -15 -25 -14 -43 4 -40 44
-108 40 -165 -10 -33 -29 -35 -30 -54 -13 -17 16 -18 20 -5 38 10 14 27 22 49
23 39 1 61 16 87 58 13 22 26 29 55 32 20 2 41 7 47 13 9 9 47 3 47 -8z m3273
-2 c16 -4 34 -6 41 -3 8 3 18 -7 25 -25 18 -42 45 -63 83 -64 23 -1 40 -8 51
-23 15 -20 15 -23 -3 -39 -19 -17 -21 -16 -54 13 -45 39 -93 49 -134 28 -17
-9 -35 -23 -40 -32 -8 -14 -12 -13 -33 8 -20 20 -24 33 -22 76 1 58 17 87 42
76 9 -3 29 -10 44 -15z m-1945 -106 c20 -45 16 -73 -12 -73 -13 0 -30 -2 -38
-5 -17 -7 -17 50 0 67 7 7 12 18 12 25 0 23 25 14 38 -14z m608 -49 c-6 -26
-11 -29 -46 -29 -53 0 -63 33 -23 75 l28 28 24 -23 c18 -17 22 -29 17 -51z
m-1081 7 c-17 -15 -17 -15 -11 2 3 10 6 26 6 35 1 15 2 15 11 -2 9 -14 7 -22
-6 -35z m1490 19 c3 -5 1 -10 -4 -10 -6 0 -11 5 -11 10 0 6 2 10 4 10 3 0 8
-4 11 -10z m-3516 -114 c22 -23 22 -25 6 -50 -30 -45 -24 -95 18 -158 41 -63
66 -74 139 -63 41 6 44 5 57 -25 16 -37 64 -70 102 -70 35 0 64 25 92 80 22
45 22 45 84 50 34 3 67 10 74 17 13 13 72 -8 102 -36 16 -16 16 -20 2 -47 -18
-35 -19 -60 -4 -103 6 -18 9 -34 6 -37 -2 -3 -22 6 -42 21 -21 14 -49 25 -62
25 -45 0 -168 -30 -268 -65 -55 -19 -111 -35 -125 -35 -29 0 -120 96 -120 126
0 41 -45 105 -120 174 -44 39 -83 82 -86 95 -7 28 5 52 59 124 l41 54 11 -26
c6 -14 21 -37 34 -51z m1817 -256 c0 -25 4 -54 7 -66 5 -14 2 -26 -8 -34 -28
-24 -47 -70 -40 -100 11 -49 -23 -88 -52 -59 -8 8 -5 24 10 59 18 43 19 54 8
90 -10 32 -20 45 -46 56 -32 13 -33 15 -24 44 9 23 17 30 37 30 15 1 38 7 52
15 41 24 55 15 56 -35z m1964 35 c14 -8 35 -14 48 -15 12 0 22 -6 22 -14 0 -8
3 -21 6 -29 3 -10 -2 -18 -14 -21 -50 -16 -73 -117 -39 -170 22 -33 21 -43 -3
-51 -32 -10 -53 13 -46 53 6 38 -7 78 -35 108 -16 17 -18 26 -9 49 6 15 8 36
5 46 -6 19 14 59 30 59 5 -1 21 -7 35 -15z m-1379 -202 c6 -16 19 -38 31 -50
15 -16 18 -29 13 -51 -6 -28 -8 -30 -37 -21 -64 18 -128 -37 -128 -111 0 -27
-3 -30 -30 -30 -24 0 -30 4 -30 21 0 11 14 34 30 51 26 25 30 37 30 82 0 43 4
57 25 76 14 13 25 29 25 36 0 12 18 20 48 23 7 0 17 -11 23 -26z m790 17 c5 0
9 -6 9 -14 0 -7 12 -25 27 -40 22 -23 26 -35 24 -71 -3 -50 10 -81 39 -90 14
-4 20 -15 20 -36 0 -25 -4 -29 -29 -29 -27 0 -29 3 -34 51 -4 29 -14 60 -22
69 -21 23 -65 31 -103 20 -29 -8 -31 -6 -37 22 -5 22 -2 35 12 51 11 12 27 35
37 50 11 18 23 26 33 23 8 -3 19 -6 24 -6z m1852 -398 c120 -147 118 -157 -29
-292 -135 -123 -176 -152 -252 -180 -110 -41 -134 -29 -221 118 -28 48 -66
105 -85 127 l-33 39 25 38 c21 33 28 37 51 30 83 -23 151 11 151 75 0 33 1 34
35 27 42 -7 85 8 103 37 7 11 16 42 19 69 5 46 7 48 43 54 20 3 45 15 55 26
18 20 19 20 51 -40 17 -33 57 -91 87 -128z m-4320 89 c3 -27 12 -59 19 -70 18
-29 61 -44 103 -37 32 6 35 5 35 -18 0 -71 56 -106 137 -88 40 9 43 8 59 -17
23 -37 55 -61 82 -61 28 0 28 -11 1 -36 -12 -10 -48 -63 -81 -116 -58 -96
-106 -148 -133 -148 -52 0 -294 162 -394 264 -46 47 -54 60 -54 93 0 21 10 57
22 80 27 54 161 203 182 203 12 0 18 -13 22 -49z m-1544 -176 c28 -38 47 -72
43 -76 -14 -13 -184 -69 -208 -69 -33 0 -31 34 4 81 38 52 107 137 109 135 1
0 24 -32 52 -71z m7351 33 c40 -45 97 -128 105 -155 6 -20 3 -23 -22 -23 -33
1 -212 61 -214 73 -1 9 90 137 97 137 2 0 18 -15 34 -32z m-5020 -14 c21 -21
25 -34 26 -87 0 -34 3 -71 7 -82 5 -15 -2 -27 -27 -47 l-34 -28 -18 57 c-23
71 -58 95 -140 97 -41 1 -53 4 -49 14 3 8 8 25 11 38 5 21 12 24 49 24 28 0
53 8 76 24 39 27 63 25 99 -10z m2685 -14 c37 0 44 -3 49 -24 3 -13 8 -31 12
-39 3 -9 -7 -22 -31 -37 -21 -13 -47 -43 -63 -74 -27 -50 -27 -53 -25 -227 2
-127 -1 -180 -10 -192 -9 -12 -39 -20 -107 -27 -124 -13 -159 -23 -257 -76
-95 -52 -129 -55 -165 -16 -22 23 -118 176 -118 188 0 2 19 1 43 -2 30 -4 52
0 79 14 30 15 38 17 42 6 15 -39 143 -74 161 -44 3 6 19 10 36 10 45 0 69 31
69 89 0 52 8 61 55 61 98 0 128 116 50 188 -35 32 -36 36 -24 63 7 18 9 49 6
78 -5 43 -3 51 21 74 37 34 61 37 101 10 22 -15 49 -23 76 -23z m-1926 -216
c22 -5 31 -12 31 -26 0 -31 28 -76 59 -94 29 -17 29 -19 15 -46 -11 -22 -22
-28 -47 -28 -94 0 -187 -66 -187 -133 0 -28 -11 -48 -54 -99 -30 -35 -68 -73
-85 -86 l-32 -23 -92 50 c-108 58 -150 70 -276 81 -51 5 -98 13 -103 18 -14
14 -22 112 -13 177 6 48 9 55 23 49 9 -3 28 -9 42 -11 73 -12 70 -10 70 -63 0
-59 24 -90 69 -90 17 0 32 -4 35 -9 20 -32 116 -13 147 28 l21 28 36 -19 c42
-22 98 -19 137 6 32 21 42 75 23 124 -14 36 -13 37 17 57 16 11 39 39 50 62
23 51 46 60 114 47z m1067 0 c11 -3 29 -24 40 -47 10 -23 33 -51 50 -63 30
-20 31 -21 17 -48 -8 -16 -13 -44 -11 -62 2 -19 3 -34 1 -34 -1 0 -18 11 -38
24 -48 33 -133 44 -186 23 -34 -13 -39 -13 -39 -1 0 8 -6 27 -14 43 -14 26
-13 28 13 44 28 17 61 71 61 100 0 21 62 33 106 21z m-761 -328 c37 -56 140
-72 176 -27 15 18 16 18 27 1 14 -22 62 -34 102 -25 17 4 46 22 65 42 30 31
36 33 56 23 12 -7 43 -13 69 -13 l47 -1 -1 -184 c-1 -210 2 -202 -95 -224 -73
-16 -349 -16 -422 0 -98 22 -94 13 -95 227 -1 181 -1 187 20 195 31 13 34 12
51 -14z m-1147 -1093 c43 -14 79 -28 81 -29 7 -5 -144 -204 -155 -204 -22 0
-30 100 -18 208 4 28 9 52 11 52 3 0 39 -12 81 -27z m2862 -85 c0 -62 -5 -120
-10 -128 -15 -24 -57 14 -118 105 l-53 80 78 26 c43 14 84 27 91 28 9 1 12
-27 12 -111z"/>
</g>
</svg>
